<svg class="plot-d6a7b5" fill="currentColor" font-family="system-ui, sans-serif" font-size="10" text-anchor="middle" width="640" height="400" viewBox="0 0 640 400" xmlns="http://www.w3.org/2000/svg" xmlns:xlink="http://www.w3.org/1999/xlink"><style>:where(.plot-d6a7b5) {
  --plot-background: white;
  display: block;
  height: auto;
  height: intrinsic;
  max-width: 100%;
}
:where(.plot-d6a7b5 text),
:where(.plot-d6a7b5 tspan) {
  white-space: pre;
}</style><g aria-label="y-axis tick" aria-hidden="true" fill="none" stroke="currentColor" transform="translate(0,0.5)"><path transform="translate(40,336.450397655923)" d="M0,0L-6,0"/><path transform="translate(40,299.82419422352444)" d="M0,0L-6,0"/><path transform="translate(40,263.197990791126)" d="M0,0L-6,0"/><path transform="translate(40,226.57178735872748)" d="M0,0L-6,0"/><path transform="translate(40,189.94558392632902)" d="M0,0L-6,0"/><path transform="translate(40,153.3193804939305)" d="M0,0L-6,0"/><path transform="translate(40,116.69317706153203)" d="M0,0L-6,0"/><path transform="translate(40,80.06697362913354)" d="M0,0L-6,0"/><path transform="translate(40,43.44077019673503)" d="M0,0L-6,0"/></g><g aria-label="y-axis tick label" text-anchor="end" font-variant="tabular-nums" transform="translate(-8.5,0.5)"><text y="0.32em" transform="translate(40,336.450397655923)">100</text><text y="0.32em" transform="translate(40,299.82419422352444)">200</text><text y="0.32em" transform="translate(40,263.197990791126)">300</text><text y="0.32em" transform="translate(40,226.57178735872748)">400</text><text y="0.32em" transform="translate(40,189.94558392632902)">500</text><text y="0.32em" transform="translate(40,153.3193804939305)">600</text><text y="0.32em" transform="translate(40,116.69317706153203)">700</text><text y="0.32em" transform="translate(40,80.06697362913354)">800</text><text y="0.32em" transform="translate(40,43.44077019673503)">900</text></g><g aria-label="y-axis label" text-anchor="start" transform="translate(-36.5,-16.5)"><text y="0.71em" transform="translate(40,20)">↑ venta</text></g><g aria-label="x-axis tick" aria-hidden="true" fill="none" stroke="currentColor" transform="translate(0.5,0)"><path transform="translate(59.42355201756794,370)" d="M0,0L0,6"/><path transform="translate(117.53499862750482,370)" d="M0,0L0,6"/><path transform="translate(175.80565468020862,370)" d="M0,0L0,6"/><path transform="translate(233.91710129014547,370)" d="M0,0L0,6"/><path transform="translate(292.02854790008234,370)" d="M0,0L0,6"/><path transform="translate(350.1399945100192,370)" d="M0,0L0,6"/><path transform="translate(408.410650562723,370)" d="M0,0L0,6"/><path transform="translate(466.52209717265987,370)" d="M0,0L0,6"/><path transform="translate(524.6335437825967,370)" d="M0,0L0,6"/><path transform="translate(582.7449903925336,370)" d="M0,0L0,6"/></g><g aria-label="x-axis tick label" font-variant="tabular-nums" transform="translate(0.5,9.5)"><text y="0.71em" transform="translate(59.42355201756794,370)">2015</text><text y="0.71em" transform="translate(117.53499862750482,370)">2016</text><text y="0.71em" transform="translate(175.80565468020862,370)">2017</text><text y="0.71em" transform="translate(233.91710129014547,370)">2018</text><text y="0.71em" transform="translate(292.02854790008234,370)">2019</text><text y="0.71em" transform="translate(350.1399945100192,370)">2020</text><text y="0.71em" transform="translate(408.410650562723,370)">2021</text><text y="0.71em" transform="translate(466.52209717265987,370)">2022</text><text y="0.71em" transform="translate(524.6335437825967,370)">2023</text><text y="0.71em" transform="translate(582.7449903925336,370)">2024</text></g><g aria-label="x-axis label" text-anchor="end" transform="translate(17.5,27.5)"><text transform="translate(620,370)">fecha →</text></g><g aria-label="rule" stroke="grey" stroke-dasharray="2" transform="translate(0.5,0)"><line x1="114.05229206697777" x2="114.05229206697777" y1="20" y2="370"/><line x1="346.6572879494921" x2="346.6572879494921" y1="20" y2="370"/><line x1="579.2622838320066" x2="579.2622838320066" y1="20" y2="370"/></g><g aria-label="line" fill="none" stroke="currentColor" stroke-width="1.5" stroke-linejoin="round" stroke-linecap="round" transform="translate(0.5,0.5)"><path d="M40,370L40.159,370L40.318,370L40.478,370L40.637,370L41.114,370L41.274,370L41.433,370L41.592,370L41.751,370L42.229,370L42.388,370L42.547,370L42.707,369.996L42.866,369.996L43.343,369.996L43.503,369.996L43.662,369.996L43.821,369.996L43.98,369.996L44.458,369.996L44.617,369.996L44.776,369.996L44.935,369.996L45.095,369.996L45.572,369.996L45.732,369.982L45.891,369.982L46.05,369.982L46.209,369.982L46.846,369.978L47.005,369.978L47.164,369.978L47.324,369.974L47.801,369.974L47.96,369.971L48.12,369.971L48.279,369.971L48.438,369.969L48.916,369.969L49.075,369.965L49.234,369.965L49.393,369.965L49.553,369.965L50.03,369.963L50.189,369.962L50.349,369.962L50.667,369.962L51.145,369.962L51.304,369.962L51.463,369.962L51.622,369.96L51.781,369.96L52.259,369.96L52.418,369.96L52.578,369.958L52.737,369.958L52.896,369.956L53.533,369.954L53.692,369.954L53.851,369.952L54.01,369.952L54.488,369.951L54.647,369.949L54.806,369.947L54.966,369.945L55.125,369.941L55.762,369.941L55.921,369.941L56.08,369.941L56.239,369.941L56.717,369.941L56.876,369.941L57.035,369.941L57.195,369.941L57.354,369.941L57.831,369.941L57.991,369.941L58.15,369.941L58.946,369.941L59.105,369.941L59.583,369.941L60.06,369.94L60.22,369.936L60.379,369.932L60.538,369.929L60.697,369.927L61.175,369.929L61.334,369.929L61.493,369.929L61.652,369.927L61.812,369.925L62.289,369.925L62.449,369.923L62.608,369.921L62.767,369.918L62.926,369.918L63.404,369.916L63.563,369.916L63.722,369.914L63.881,369.914L64.041,369.91L64.518,369.905L64.677,369.905L64.837,369.905L64.996,369.905L65.155,369.905L65.633,369.903L65.792,369.899L65.951,369.897L66.11,369.897L66.27,369.896L67.066,369.892L67.225,369.89L67.384,369.888L67.862,369.886L68.021,369.883L68.18,369.881L68.339,369.881L68.498,369.879L68.976,369.877L69.135,369.875L69.295,369.874L69.454,369.872L69.613,369.868L70.091,369.866L70.25,369.864L70.409,369.861L70.568,369.859L70.727,369.859L71.205,369.859L71.364,369.857L71.523,369.855L71.683,369.855L71.842,369.853L72.638,369.85L72.797,369.85L72.956,369.85L73.434,369.846L73.593,369.846L73.752,369.843L74.548,369.841L74.708,369.841L74.867,369.839L75.026,369.837L75.185,369.835L75.663,369.832L75.822,369.832L75.981,369.828L76.141,369.828L76.3,369.828L76.777,369.826L76.937,369.826L77.096,369.824L77.255,369.822L77.414,369.821L77.892,369.819L78.051,369.817L78.21,369.815L78.369,369.813L79.006,369.811L79.166,369.81L79.325,369.81L79.484,369.808L79.643,369.806L80.121,369.804L80.28,369.802L80.439,369.8L80.598,369.8L80.758,369.799L81.235,369.797L81.394,369.795L81.554,369.793L81.713,369.791L81.872,369.789L82.509,369.788L82.668,369.786L82.827,369.784L82.987,369.782L83.464,369.78L83.623,369.778L83.783,369.777L83.942,369.775L84.101,369.775L84.579,369.773L84.738,369.771L84.897,369.769L85.056,369.767L85.215,369.766L85.693,369.764L85.852,369.762L86.012,369.762L86.171,369.76L86.33,369.758L86.808,369.756L86.967,369.756L87.126,369.753L87.285,369.753L87.444,369.751L87.922,369.749L88.081,369.747L88.24,369.745L88.4,369.744L88.559,369.74L89.037,369.74L89.196,369.738L89.355,369.736L89.673,369.734L90.151,369.733L90.31,369.731L90.469,369.729L90.629,369.727L90.788,369.725L91.265,369.723L91.425,369.722L91.584,369.72L91.743,369.718L91.902,369.716L92.38,369.716L92.539,369.714L92.698,369.712L92.858,369.711L93.017,369.709L93.494,369.707L93.654,369.705L93.813,369.703L93.972,369.701L94.131,369.7L94.609,369.698L94.768,369.696L94.927,369.694L95.086,369.692L95.246,369.691L95.883,369.689L96.042,369.687L96.201,369.685L96.36,369.683L96.838,369.681L96.997,369.68L97.156,369.678L97.315,369.674L97.475,369.672L97.952,369.67L98.111,369.669L98.271,369.665L98.43,369.663L98.589,369.659L99.067,369.656L99.226,369.652L99.385,369.652L99.544,369.65L99.704,369.648L100.181,369.647L100.34,369.645L100.5,369.643L100.659,369.641L100.818,369.639L101.296,369.637L101.455,369.636L101.614,369.634L101.773,369.63L101.932,369.628L102.41,369.626L102.569,369.626L102.729,369.625L102.888,369.623L103.047,369.619L103.525,369.615L103.684,369.614L103.843,369.612L104.002,369.61L104.161,369.608L104.798,369.606L104.957,369.603L105.117,369.601L105.276,369.599L105.753,369.597L105.913,369.593L106.072,369.592L106.231,369.59L106.39,369.588L106.868,369.586L107.027,369.582L107.186,369.581L107.346,369.579L107.505,369.577L107.982,369.575L108.142,369.573L108.301,369.57L108.46,369.566L109.097,369.564L109.256,369.56L109.415,369.557L109.575,369.553L109.734,369.549L110.211,369.548L110.371,369.544L110.53,369.54L110.689,369.539L110.848,369.535L111.326,369.531L111.485,369.529L111.644,369.529L111.803,369.528L112.44,369.526L112.6,369.522L112.759,369.518L112.918,369.515L113.077,369.511L113.873,369.506L114.032,369.504L114.192,369.491L114.669,369.487L114.828,369.482L114.988,369.474L115.147,367.967L115.306,368.095L115.784,368.279L115.943,368.242L116.102,368.205L116.261,368.205L116.898,368.205L117.057,368.205L117.217,368.205L117.376,368.205L118.013,368.205L118.172,368.022L118.331,367.949L118.49,367.949L118.649,367.949L119.127,367.949L119.286,368.022L119.446,368.022L119.605,368.132L119.764,368.095L120.242,368.095L120.401,368.095L120.56,368.095L120.719,368.059L120.878,368.022L121.356,367.986L121.515,367.986L121.674,367.956L121.834,367.956L121.993,367.956L122.47,367.857L122.63,367.857L122.789,367.857L122.948,367.839L123.107,367.784L123.903,367.729L124.063,367.693L124.222,367.619L124.699,367.619L124.859,367.601L125.018,367.564L125.177,367.509L125.336,367.509L125.814,367.473L125.973,367.363L126.132,367.363L126.292,367.363L126.451,367.363L126.928,367.253L127.088,367.235L127.247,367.235L127.406,367.4L127.565,367.4L128.043,367.4L128.202,367.363L128.361,367.363L128.52,367.363L128.68,367.509L129.157,367.583L129.316,367.656L129.476,367.693L129.635,367.546L129.794,367.619L130.272,367.693L130.431,367.766L130.59,367.729L131.386,367.619L131.545,367.619L131.705,367.656L131.864,367.656L132.023,367.619L132.501,367.583L132.66,367.619L132.819,367.656L132.978,367.693L133.138,367.729L133.615,367.729L133.774,367.693L133.934,367.729L134.093,367.766L134.252,367.802L134.73,367.802L134.889,367.802L135.048,367.766L135.207,367.766L135.366,367.729L135.844,367.766L136.003,367.766L136.163,367.802L136.322,367.802L136.481,367.766L136.959,367.802L137.118,367.802L137.277,367.802L137.436,367.802L137.595,367.802L138.073,367.802L138.232,367.802L138.391,367.802L138.551,367.802L138.71,367.802L139.187,367.802L139.347,367.839L139.506,367.839L139.665,367.839L139.824,367.839L140.302,367.876L140.461,367.876L140.78,367.876L140.939,367.876L141.416,367.876L141.576,367.876L141.735,367.876L141.894,367.912L142.053,367.912L142.531,367.949L142.69,367.949L142.849,367.912L143.009,367.912L143.168,367.949L143.645,367.949L143.805,367.949L143.964,367.949L144.123,367.912L144.919,367.912L145.078,367.876L145.237,367.711L145.397,367.546L145.874,367.4L146.033,367.546L146.193,367.546L146.352,367.509L146.511,367.509L146.989,367.509L147.148,367.583L147.307,367.619L147.466,367.619L148.103,367.619L148.262,367.656L148.422,367.656L148.581,367.619L148.74,367.546L149.218,367.473L149.377,367.509L149.536,367.509L149.695,367.509L149.855,367.546L150.332,367.546L150.491,367.528L150.651,367.509L150.81,367.509L150.969,367.509L151.447,367.509L151.606,367.564L151.765,367.564L151.924,367.564L152.083,367.583L152.561,367.619L152.72,367.583L152.879,367.619L153.039,367.619L153.198,367.619L153.835,367.619L153.994,367.619L154.153,367.546L154.312,367.546L154.79,367.583L154.949,367.583L155.108,367.583L155.268,367.546L155.427,367.509L155.904,367.473L156.064,367.509L156.223,367.546L156.382,367.546L156.541,367.509L157.019,367.509L157.178,367.509L157.337,367.509L157.497,367.491L157.656,367.509L158.133,367.528L158.293,367.509L158.452,367.509L158.611,367.491L158.77,367.473L159.248,367.454L159.407,367.454L159.566,367.454L159.726,367.454L159.885,367.454L160.362,367.436L160.522,367.418L160.681,367.381L160.84,367.363L160.999,367.4L161.477,367.436L161.636,367.436L161.795,367.436L161.954,367.436L162.114,367.436L162.75,367.436L162.91,367.473L163.069,367.473L163.228,367.473L163.706,367.436L163.865,367.436L164.024,367.436L164.183,367.436L164.343,367.436L164.82,367.473L164.979,367.436L165.139,367.436L165.298,367.436L165.457,367.436L165.935,367.436L166.094,367.473L166.253,367.473L166.412,367.473L166.572,367.491L167.049,367.491L167.208,367.528L167.368,367.546L167.527,367.491L167.686,367.4L168.164,367.29L168.323,367.326L168.482,367.326L168.641,367.326L168.8,367.326L169.278,367.363L169.437,367.363L169.596,367.326L169.756,367.326L169.915,367.326L170.552,367.253L170.711,367.18L170.87,367.198L171.029,367.161L171.507,367.18L171.666,367.18L171.825,367.143L172.621,367.143L172.781,367.161L172.94,367.161L173.099,367.161L173.258,367.18L173.736,367.216L173.895,367.198L174.054,367.216L174.214,367.235L174.373,367.326L174.85,367.308L175.01,367.308L175.169,367.235L175.328,367.18L175.487,367.18L175.965,367.18L176.124,367.18L176.283,367.107L176.442,367.143L176.602,367.216L177.079,367.198L177.239,367.198L177.398,367.198L177.557,367.198L177.716,367.198L178.194,367.198L178.353,367.18L178.512,367.143L178.671,367.18L178.831,367.18L179.308,367.161L179.467,367.161L179.627,367.161L179.786,367.161L179.945,367.18L180.423,367.18L180.582,367.18L180.741,367.216L180.9,367.253L181.06,367.29L181.537,367.216L181.696,367.271L181.856,367.271L182.015,367.29L182.174,367.326L182.652,367.326L182.811,367.326L182.97,367.363L183.129,367.363L183.288,367.253L183.766,367.253L183.925,367.29L184.085,367.326L184.244,367.29L184.403,367.326L185.199,367.363L185.358,367.363L185.517,367.363L185.995,367.345L186.154,367.308L186.313,367.29L186.473,367.308L186.632,367.326L187.11,367.326L187.269,367.326L187.428,367.308L187.587,367.308L187.746,367.308L188.224,367.29L188.383,367.29L188.542,367.29L188.702,367.29L189.338,367.29L189.498,367.29L189.657,367.345L189.816,367.363L189.975,367.363L190.453,367.363L190.612,367.381L190.771,367.381L190.931,367.381L191.09,367.381L191.567,367.436L191.727,367.418L191.886,367.436L192.682,367.436L192.841,367.4L193,367.363L193.159,367.363L193.319,367.326L193.796,367.363L193.956,367.363L194.115,367.326L194.274,367.363L194.433,367.363L195.07,367.4L195.229,367.4L195.388,367.4L195.548,367.381L196.025,367.326L196.184,367.326L196.344,367.326L196.503,367.345L196.662,367.345L197.14,367.326L197.299,367.29L197.458,367.29L197.617,367.143L197.777,367.143L198.254,367.077L198.413,367.107L198.573,367.107L198.891,367.143L199.369,367.143L199.528,367.088L199.687,367.107L199.846,367.125L200.005,367.143L200.483,367.143L200.642,367.143L200.802,367.143L200.961,367.18L201.12,367.18L201.598,367.18L201.757,367.18L201.916,367.198L202.075,367.161L202.234,367.125L202.712,367.088L203.03,367.052L203.19,367.088L203.349,367.088L203.827,367.033L203.986,366.997L204.145,366.978L204.304,366.96L204.463,366.923L204.941,366.85L205.1,366.792L205.259,366.715L205.419,366.729L205.578,366.773L206.055,366.784L206.215,366.777L206.374,366.795L206.533,366.795L206.692,366.832L207.17,366.814L207.329,366.704L207.488,366.722L207.648,366.704L207.807,366.63L208.284,366.612L208.444,366.612L208.603,366.594L208.762,366.539L208.921,366.488L209.399,366.539L209.558,366.563L209.717,366.557L209.876,366.539L210.036,366.539L210.513,366.521L210.673,366.521L210.832,366.521L210.991,366.521L211.15,366.521L211.628,366.722L211.787,366.759L211.946,366.704L212.105,366.649L212.265,366.667L212.901,366.704L213.061,366.685L213.22,366.704L213.379,366.704L213.857,366.693L214.016,366.63L214.175,366.63L214.334,366.667L214.494,366.704L214.971,366.685L215.13,366.685L215.29,366.704L215.449,366.704L215.608,366.704L216.086,366.722L216.245,366.74L216.404,366.759L216.563,366.777L216.722,366.777L217.2,366.74L217.359,366.722L217.519,366.704L217.678,366.667L217.837,366.667L218.315,366.594L218.474,366.557L218.633,366.557L218.792,366.594L218.951,366.667L219.429,366.63L219.588,366.63L219.747,366.649L219.907,366.63L220.066,366.612L220.544,366.594L220.703,366.612L220.862,366.612L221.021,366.612L221.18,366.649L221.817,366.649L221.976,366.649L222.136,366.612L222.295,366.612L222.772,366.63L222.932,366.594L223.091,366.594L223.25,366.539L223.409,366.539L223.887,366.521L224.046,366.539L224.205,366.557L224.365,366.575L224.524,366.539L225.161,366.539L225.32,366.575L225.479,366.575L225.638,366.594L226.116,366.594L226.275,366.594L226.434,366.594L226.593,366.594L226.753,366.594L227.39,366.594L227.549,366.612L227.708,366.612L227.867,366.649L228.345,366.667L228.504,366.649L228.663,366.63L228.822,366.667L228.982,366.685L229.459,366.649L229.618,366.667L229.778,366.685L229.937,366.667L230.574,366.685L230.733,366.649L230.892,366.649L231.051,366.612L231.211,366.594L231.688,366.575L231.847,366.521L232.007,366.502L232.166,366.447L232.325,366.374L232.962,366.282L233.121,366.228L233.28,365.953L233.439,366.154L234.076,366.246L234.236,366.228L234.395,366.154L234.554,366.081L235.032,366.008L235.191,366.044L235.35,366.173L235.509,366.136L235.668,366.136L236.146,366.118L236.305,366.063L236.464,366.081L236.624,366.081L236.783,366.026L237.26,365.989L237.42,365.898L237.579,365.788L237.738,365.825L237.897,365.825L238.375,365.825L238.534,365.806L238.693,365.788L238.853,365.88L239.012,365.843L239.489,365.843L239.649,365.806L239.808,365.788L239.967,365.678L240.126,365.66L240.922,365.696L241.082,365.77L241.241,365.751L241.718,365.696L241.878,365.715L242.037,365.696L242.196,365.678L242.355,365.678L242.833,365.587L242.992,365.587L243.151,365.623L243.31,365.605L243.47,365.568L243.947,365.587L244.107,365.532L244.266,365.513L244.425,365.513L244.584,365.568L245.062,365.587L245.221,365.587L245.38,365.587L245.539,365.532L245.699,365.587L246.176,365.587L246.335,365.568L246.495,365.55L246.654,365.568L246.813,365.587L247.291,365.587L247.45,365.587L247.609,365.605L248.564,365.605L248.724,365.587L248.883,365.587L249.042,365.587L249.52,365.587L249.679,365.587L249.838,365.605L249.997,365.587L250.156,365.587L250.634,365.587L250.793,365.587L250.953,365.587L251.112,365.605L251.271,365.587L251.749,365.568L251.908,365.568L252.067,365.568L252.226,365.458L252.385,365.458L253.181,365.22L253.341,364.543L253.5,364.946L253.977,364.909L254.137,364.726L254.296,364.616L254.455,364.616L254.614,364.396L255.092,363.81L255.251,364.103L255.41,363.993L255.57,363.993L255.729,363.957L256.206,363.957L256.366,363.993L256.525,363.957L256.684,363.883L257.321,363.847L257.48,363.774L257.639,363.774L257.799,363.774L257.958,363.774L258.435,363.774L258.595,363.774L258.754,363.774L258.913,363.774L259.072,363.627L259.55,363.371L259.709,363.444L259.868,363.371L260.027,362.748L260.187,362.528L260.664,362.785L260.823,362.748L261.142,362.821L261.301,363.004L261.779,363.004L261.938,362.968L262.097,362.858L262.256,362.602L262.416,362.308L262.893,362.528L263.052,362.711L263.212,362.602L263.371,362.638L263.53,362.675L264.167,362.895L264.326,362.858L264.485,362.931L264.645,362.931L265.122,362.895L265.281,362.821L265.441,362.785L265.6,362.748L265.759,362.785L266.237,362.785L266.396,362.821L266.555,362.858L266.714,362.858L266.873,362.858L267.351,362.895L267.51,362.858L267.67,362.821L267.829,362.821L267.988,362.895L268.466,362.858L268.625,362.858L268.784,362.785L268.943,362.602L269.102,362.199L269.58,361.906L269.739,362.052L269.898,361.906L270.058,361.979L270.217,361.979L270.854,361.906L271.013,361.832L271.172,361.722L271.331,361.576L271.809,361.576L271.968,361.393L272.127,360.441L272.287,359.085L272.446,359.378L272.923,359.159L273.083,358.609L273.242,358.792L273.401,359.159L273.56,359.305L274.038,359.159L274.197,358.976L274.356,358.866L274.516,358.389L274.675,358.28L275.152,358.353L275.312,358.316L275.471,358.499L275.63,358.866L275.789,359.232L276.267,359.195L276.426,358.902L276.585,358.719L276.744,358.206L276.904,357.657L277.381,358.243L277.54,358.792L277.7,358.939L277.859,358.719L278.018,358.902L278.496,359.012L278.655,359.159L278.814,359.122L278.973,359.342L279.133,359.305L279.769,359.562L279.929,359.488L280.088,359.342L280.247,359.342L280.725,359.415L280.884,359.342L281.043,359.195L281.202,359.269L281.362,359.232L281.839,359.232L281.998,359.305L282.158,359.598L282.317,359.671L282.476,359.745L282.954,359.745L283.272,359.671L283.431,359.745L283.59,359.781L284.068,359.708L284.227,359.562L284.386,359.562L284.546,359.562L284.705,359.562L285.342,359.488L285.501,359.488L285.66,359.378L285.819,358.976L286.297,358.463L286.456,358.609L286.615,358.646L286.775,358.939L287.411,359.378L287.571,359.049L287.73,359.012L287.889,358.939L288.048,359.049L288.526,358.939L288.685,358.902L288.844,358.976L289.004,358.902L289.163,358.792L289.64,358.756L289.8,358.756L289.959,358.719L290.118,358.792L290.277,358.829L291.073,358.609L291.233,358.683L291.392,358.939L292.188,358.939L292.347,359.012L292.506,359.049L292.984,359.049L293.143,358.976L293.302,359.049L293.461,359.159L293.621,359.232L294.098,359.195L294.257,359.159L294.417,359.012L294.576,358.939L294.735,358.976L295.213,358.939L295.372,359.012L295.531,359.012L295.69,359.049L295.85,359.159L296.327,359.159L296.486,358.939L296.646,359.012L296.805,359.085L296.964,359.122L297.442,359.122L297.601,359.122L297.76,359.012L297.919,358.902L298.079,358.902L298.556,358.866L298.715,358.829L298.875,358.756L299.034,358.756L299.193,358.609L299.671,358.536L299.83,358.353L299.989,358.206L300.148,358.28L300.307,358.389L300.785,358.463L300.944,358.499L301.103,358.536L301.263,358.389L301.422,358.17L302.218,357.84L302.377,357.144L302.536,357.62L303.014,357.584L303.173,357.51L303.332,357.62L303.492,357.767L303.651,358.06L304.128,358.06L304.288,357.877L304.447,357.767L304.606,357.694L304.765,357.401L305.243,357.327L305.402,357.108L305.561,356.631L305.721,356.741L305.88,356.851L306.357,357.071L306.676,356.998L306.835,356.815L306.994,356.631L307.472,356.705L307.631,356.815L307.79,356.961L307.949,357.034L308.109,357.254L308.586,357.474L308.746,357.181L308.905,357.364L309.701,357.144L309.86,357.181L310.019,356.631L310.178,356.265L310.338,355.862L310.815,356.485L310.974,356.522L311.293,356.302L311.452,356.448L311.93,356.338L312.089,356.119L312.248,356.192L312.407,356.119L312.567,356.302L313.044,356.192L313.203,356.229L313.363,356.229L313.522,356.302L313.681,356.229L314.159,356.155L314.318,356.302L314.477,356.265L314.636,356.192L314.795,356.302L315.273,356.265L315.432,356.338L315.592,356.448L315.751,356.412L315.91,356.302L316.388,356.265L316.547,356.338L316.706,356.265L316.865,356.265L317.024,356.265L317.502,356.265L317.661,356.338L317.82,356.705L317.98,356.815L318.139,356.595L318.776,356.778L318.935,356.851L319.253,357.034L319.731,357.144L319.89,357.181L320.049,357.071L320.209,357.071L320.368,357.144L320.845,357.181L321.005,357.254L321.164,357.327L321.323,357.401L321.482,357.401L322.278,357.401L322.438,357.437L322.597,357.474L323.074,357.181L323.234,357.108L323.393,357.144L323.552,357.144L323.711,357.181L324.189,357.181L324.348,357.108L324.507,356.998L324.666,356.815L324.826,356.815L325.303,356.668L325.463,356.631L325.622,356.631L325.781,356.448L325.94,356.375L326.418,356.045L326.577,356.119L326.736,356.009L326.895,356.155L327.055,356.155L327.532,352.932L327.691,351.833L327.851,350.002L328.01,351.467L328.169,352.2L328.806,352.2L328.965,352.2L329.124,352.2L329.284,352.2L329.761,352.2L329.92,351.833L330.08,351.101L330.239,351.101L330.398,350.735L330.876,352.2L331.035,352.2L331.194,352.2L331.353,352.2L331.512,352.2L331.99,352.2L332.149,352.2L332.309,352.2L332.468,352.108L332.627,352.017L333.105,351.833L333.264,351.65L333.423,351.65L333.582,351.65L333.741,351.65L334.219,351.65L334.378,351.65L334.537,351.65L334.697,351.467L334.856,351.467L335.334,351.467L335.493,351.284L335.652,351.284L335.811,351.284L335.97,351.321L336.448,351.321L336.607,351.321L336.766,351.284L336.926,351.284L337.085,351.284L337.722,351.284L337.881,351.284L338.04,351.284L338.199,351.101L338.677,350.918L338.836,350.826L338.995,350.551L339.155,350.185L339.314,349.27L339.791,349.819L339.951,349.819L340.11,349.819L340.269,349.819L340.428,349.819L340.906,349.819L341.065,349.819L341.383,350.002L341.543,350.002L342.02,350.002L342.18,350.094L342.339,350.094L342.498,350.094L342.657,350.185L343.294,350.185L343.453,350.185L343.612,350.185L343.772,350.185L344.249,350.185L344.408,350.277L344.568,350.277L344.727,350.277L344.886,350.277L345.364,350.277L345.523,350.277L345.682,350.277L345.841,350.277L346.001,350.277L346.478,350.185L346.637,350.094L346.797,350.002L346.956,350.002L347.115,350.002L347.593,350.002L347.752,350.002L348.229,350.002L348.707,350.002L349.185,350.002L349.344,350.002L349.822,350.002L350.299,350.002L350.458,350.002L350.936,350.002L351.095,350.002L351.254,350.002L351.414,350.002L351.573,350.002L352.051,350.002L352.21,350.002L352.369,350.002L352.528,350.002L352.687,350.002L353.165,350.002L353.324,350.002L353.483,350.002L353.643,350.002L353.802,350.002L354.279,350.002L354.439,350.002L354.598,350.002L354.757,350.002L354.916,350.002L355.394,350.002L355.553,350.002L355.712,350.002L355.872,350.002L356.031,350.002L356.508,350.002L356.668,349.911L356.827,349.911L356.986,349.911L357.145,349.911L357.623,349.911L357.782,349.911L357.941,349.819L358.1,349.819L358.26,349.819L359.056,349.727L359.215,349.727L359.374,349.636L359.852,349.636L360.011,349.636L360.17,349.636L360.329,349.636L360.489,349.636L360.966,349.636L361.125,349.636L361.285,349.636L361.444,349.453L361.603,349.453L362.081,349.453L362.24,349.453L362.399,349.27L362.558,349.27L362.718,349.27L363.514,349.178L363.673,349.178L363.832,349.086L364.31,348.995L364.628,348.903L364.787,348.903L364.946,348.903L365.424,348.812L365.583,348.72L365.743,348.72L366.539,348.629L366.698,348.629L366.857,348.629L367.016,348.445L367.175,348.445L367.653,348.354L367.812,348.262L367.971,348.262L368.131,348.262L368.29,348.079L368.767,348.079L368.927,347.988L369.086,347.988L369.245,347.896L369.882,347.896L370.041,347.896L370.2,347.713L370.36,347.713L370.519,347.713L370.996,347.713L371.156,347.713L371.315,347.53L371.474,347.53L371.633,347.53L372.111,347.438L372.27,347.438L372.429,347.438L372.589,347.438L372.748,347.347L373.385,347.347L373.544,347.347L373.703,347.347L373.862,347.255L374.34,347.255L374.499,347.255L374.658,347.255L374.817,347.164L374.977,347.164L375.454,347.164L375.614,346.889L375.773,346.889L375.932,346.889L376.091,346.706L376.728,346.614L376.887,346.614L377.046,346.523L377.206,346.523L377.683,346.523L377.842,346.339L378.002,346.339L378.161,346.339L378.32,346.339L378.798,346.156L378.957,346.156L379.116,346.156L379.275,346.065L379.435,345.973L379.912,345.973L380.071,345.973L380.231,345.79L381.027,345.79L381.186,345.607L381.345,345.607L381.504,345.607L381.663,345.515L382.141,345.424L382.3,345.424L382.46,345.424L382.619,345.424L382.778,345.332L383.256,345.332L383.415,345.241L383.574,345.241L383.733,345.241L383.892,345.149L384.37,345.058L384.529,345.058L384.688,344.966L384.848,344.966L385.007,344.966L385.484,344.874L385.644,344.874L385.803,344.874L385.962,344.783L386.121,344.783L386.758,344.691L386.917,344.691L387.077,344.691L387.236,344.691L387.713,344.6L387.873,344.6L388.032,344.6L388.191,344.6L388.35,344.508L388.828,344.508L388.987,344.417L389.146,344.417L389.306,344.417L389.465,344.325L389.942,344.325L390.102,344.233L390.261,344.233L390.42,344.142L390.579,344.142L391.057,344.142L391.216,344.05L391.375,344.05L391.534,344.05L391.694,344.05L392.171,343.959L392.33,343.959L392.49,343.959L392.649,343.867L392.808,343.867L393.286,343.867L393.445,343.776L393.604,343.776L393.763,343.684L393.923,343.226L394.4,343.135L394.559,343.043L394.719,343.043L394.878,343.043L395.037,343.043L395.674,342.952L395.833,342.952L395.992,342.86L396.152,342.86L396.629,342.86L396.788,342.768L396.948,342.677L397.107,342.585L397.266,342.494L397.744,342.494L397.903,342.494L398.062,342.494L398.221,342.494L398.38,342.494L398.858,342.402L399.017,342.311L399.177,342.219L399.336,342.219L399.973,342.127L400.132,342.036L400.291,342.036L400.45,341.944L400.609,341.944L401.087,341.853L401.246,341.853L401.405,341.853L401.565,341.761L401.724,341.761L402.361,341.67L402.52,341.67L402.679,341.578L402.838,341.487L403.316,341.395L403.475,341.395L403.634,341.395L403.794,341.303L403.953,341.303L404.749,341.12L404.908,341.029L405.067,341.029L405.545,341.029L405.704,340.937L405.863,340.937L406.023,340.937L406.182,340.846L406.659,340.754L406.819,340.754L406.978,340.662L407.774,340.571L407.933,340.479L408.092,340.388L408.888,340.296L409.047,340.205L409.207,340.205L409.366,340.113L409.525,340.113L410.003,340.021L410.162,339.93L410.321,339.93L410.48,339.838L410.64,339.838L411.117,339.747L411.276,339.655L411.436,339.655L411.595,339.564L411.754,339.472L412.232,339.38L412.391,339.38L412.55,339.38L412.709,339.38L412.869,339.289L413.346,339.197L413.505,339.197L413.665,339.197L413.824,339.106L413.983,339.014L414.461,338.923L414.62,338.923L414.779,338.923L414.938,338.831L415.097,338.831L415.893,338.74L416.053,338.74L416.212,338.648L416.69,338.556L416.849,338.556L417.008,338.465L417.167,338.465L417.326,338.465L417.804,338.373L417.963,338.282L418.122,338.282L418.282,338.282L418.441,338.282L418.918,338.19L419.078,338.099L419.237,338.099L419.396,338.007L419.555,338.007L420.033,337.915L420.192,337.824L420.351,337.824L420.511,337.732L420.67,337.732L421.147,337.641L421.307,337.549L421.625,337.549L421.784,337.458L422.262,337.458L422.421,337.458L422.58,337.366L423.376,337.274L423.536,337.274L423.695,337.183L423.854,337.183L424.013,337.183L424.491,337.183L424.65,337.183L424.809,337.091L424.968,337.091L425.128,337.091L425.605,337.091L425.764,337.091L425.924,337.091L426.083,337.091L426.242,337.091L426.72,337L426.879,337L427.038,337L427.197,337L427.357,337L427.834,336.908L427.993,336.908L428.153,336.908L428.312,336.908L428.471,336.817L428.949,336.817L429.108,336.817L429.267,336.817L429.426,336.817L429.586,336.817L430.063,336.725L430.222,336.725L430.382,336.725L430.541,336.725L430.7,336.634L431.496,336.634L431.655,336.542L431.814,336.542L432.292,336.542L432.451,336.45L432.61,336.45L432.77,336.45L432.929,336.45L433.407,336.45L433.566,336.45L433.725,336.45L433.884,336.45L434.043,336.45L434.521,336.359L434.68,336.359L434.839,336.359L434.999,336.359L435.158,336.359L435.795,336.359L435.954,336.267L436.113,336.267L436.272,336.267L436.75,336.267L436.909,336.176L437.068,336.176L437.228,336.176L437.387,336.176L437.864,336.084L438.024,336.084L438.183,336.084L438.342,336.084L438.979,336.084L439.138,335.993L439.297,335.993L439.456,335.993L439.616,335.993L440.093,335.901L440.253,335.901L440.412,335.901L440.571,335.901L440.73,335.901L441.208,335.901L441.367,335.809L441.526,335.809L441.685,335.809L441.845,335.809L442.322,335.809L442.481,335.718L442.641,335.718L442.8,335.718L442.959,335.718L443.437,335.718L443.596,335.718L443.755,335.718L443.914,335.718L444.074,335.626L444.71,335.626L444.87,335.626L445.029,335.535L445.188,335.535L445.666,335.535L445.825,335.535L445.984,335.535L446.143,335.443L446.302,335.443L446.78,335.443L446.939,335.443L447.099,335.352L447.258,335.352L447.417,335.352L447.895,335.352L448.054,335.352L448.213,335.26L448.372,335.26L448.531,335.26L449.009,335.26L449.168,335.26L449.327,335.168L449.487,335.168L449.646,335.168L450.124,335.077L450.283,335.077L450.442,335.077L450.601,335.077L450.76,335.077L451.238,335.077L451.397,335.077L451.556,335.077L451.716,334.985L451.875,334.985L452.352,334.985L452.512,334.894L452.671,334.894L452.83,334.894L453.626,334.894L453.785,334.894L453.945,334.894L454.104,334.802L454.581,334.802L454.741,334.711L454.9,334.711L455.059,334.711L455.218,334.711L455.696,334.711L455.855,334.711L456.014,334.619L456.173,334.619L456.333,334.619L456.81,334.619L456.97,334.619L457.129,334.619L457.288,334.528L457.447,334.528L457.925,334.528L458.084,334.528L458.243,334.528L458.402,334.528L458.562,334.528L459.039,334.436L459.198,334.436L459.358,334.436L459.517,334.436L459.676,334.436L460.313,334.344L460.472,334.344L460.631,334.344L460.791,334.344L461.268,334.344L461.427,334.253L461.587,334.161L461.746,334.161L461.905,334.161L462.383,334.161L462.542,334.07L462.86,333.978L463.019,333.978L463.497,333.978L463.656,333.887L463.816,333.887L463.975,333.887L464.134,333.887L464.612,333.887L464.771,333.887L464.93,333.795L465.089,333.795L465.726,333.703L465.885,333.612L466.044,333.612L466.204,333.612L466.841,333.52L467,333.52L467.159,333.52L467.318,333.429L467.477,333.337L467.955,333.337L468.114,333.337L468.273,333.246L468.433,333.246L468.592,333.246L469.069,333.154L469.229,333.154L469.388,333.154L469.547,333.154L469.706,333.062L470.184,332.971L470.343,332.971L470.502,332.971L470.662,332.788L470.821,332.696L471.298,332.696L471.458,332.696L471.617,332.696L471.776,332.605L471.935,332.513L472.413,332.422L472.572,332.422L472.731,332.422L472.89,332.33L473.05,332.33L473.527,332.147L473.687,332.055L473.846,332.055L474.005,332.055L474.164,332.055L474.642,331.964L474.801,331.872L474.96,331.872L475.119,331.872L475.279,331.872L476.075,331.689L476.234,331.597L476.393,331.597L476.871,331.414L477.03,331.414L477.189,331.323L477.348,331.323L477.508,331.323L477.985,331.231L478.144,331.14L478.304,331.14L478.463,331.14L478.622,331.048L479.1,330.956L479.259,330.865L479.418,330.773L479.736,330.773L480.214,330.682L480.373,330.682L480.533,330.59L480.692,330.59L480.851,330.499L481.329,330.316L481.488,330.316L481.647,330.224L481.806,330.132L481.965,330.132L482.443,329.949L482.602,329.949L482.761,329.858L483.558,329.675L483.717,329.583L483.876,329.491L484.035,329.4L484.194,329.308L484.672,329.308L484.831,329.217L484.99,329.217L485.15,329.217L485.309,329.034L485.786,328.942L485.946,328.759L486.105,328.667L486.264,328.667L486.423,328.484L486.901,328.484L487.06,328.393L487.219,328.301L487.379,328.21L487.538,328.026L488.015,328.026L488.175,327.935L488.493,327.843L488.652,327.752L489.13,327.66L489.289,327.569L489.607,327.569L489.767,327.477L490.244,327.294L490.404,327.202L490.563,327.202L490.722,327.111L490.881,326.928L491.359,326.836L491.518,326.836L491.677,326.744L491.836,326.653L491.996,326.561L492.473,326.47L492.632,326.378L492.792,326.287L492.951,326.287L493.747,326.012L493.906,326.012L494.065,325.92L494.225,325.92L494.702,325.554L494.861,325.554L495.021,325.554L495.18,325.463L495.339,325.371L495.817,324.913L495.976,324.822L496.135,324.73L496.294,324.638L496.453,324.272L496.931,323.906L497.09,323.723L497.25,323.631L497.409,323.631L497.568,323.631L498.046,323.54L498.205,323.357L498.364,323.357L498.523,323.265L498.682,323.265L499.16,322.99L499.319,322.899L499.478,322.807L499.638,322.807L499.797,322.807L500.274,322.441L500.434,322.349L500.593,322.258L500.752,322.258L500.911,322.258L501.389,321.891L501.548,321.8L501.707,321.8L501.867,321.8L502.026,321.434L502.663,321.159L502.822,321.067L502.981,321.067L503.14,320.976L503.618,320.518L503.777,320.426L503.936,320.335L504.096,320.335L504.255,320.243L504.732,319.969L504.892,319.969L505.051,319.969L505.21,319.969L505.847,319.602L506.006,319.419L506.165,319.236L506.324,319.053L506.484,319.053L506.961,318.595L507.121,318.504L507.28,318.504L507.439,318.504L507.598,318.504L508.076,318.137L508.235,317.954L508.394,317.863L508.553,317.771L508.713,317.679L509.19,317.313L509.349,317.13L509.509,317.039L509.668,317.039L509.827,316.947L510.305,316.581L510.464,316.306L510.623,316.214L510.782,316.214L511.578,315.573L511.738,315.482L511.897,315.482L512.056,315.482L512.534,314.933L512.693,314.841L512.852,314.841L513.011,314.658L513.17,314.658L513.648,314.108L513.807,313.925L513.967,313.925L514.126,313.925L514.285,313.925L514.763,313.559L514.922,313.376L515.081,313.193L515.24,313.01L515.399,312.826L515.877,312.46L516.036,312.277L516.195,312.094L516.355,311.911L516.514,311.911L516.991,311.728L517.151,311.361L517.31,311.178L517.469,311.087L517.628,311.087L518.265,310.72L518.424,310.354L518.584,310.171L518.743,310.171L519.22,309.805L519.38,309.439L519.539,309.255L519.698,309.255L519.857,309.072L520.335,308.706L520.494,308.614L520.653,308.614L521.449,307.882L521.609,307.699L521.768,307.699L521.927,307.699L522.086,307.516L522.564,307.149L522.723,307.149L522.882,306.966L523.041,306.966L523.201,306.783L523.678,306.234L523.837,306.234L523.997,306.051L524.156,305.959L524.315,305.959L524.793,305.41L524.952,305.043L525.111,305.043L525.27,305.043L525.43,305.043L525.907,304.494L526.066,304.311L526.226,304.311L526.385,304.311L526.544,304.311L527.022,303.853L527.181,303.762L527.34,303.762L527.499,303.762L527.659,303.578L528.136,303.029L528.295,302.937L528.455,302.937L528.614,302.663L528.773,302.663L529.251,302.296L529.41,302.022L529.569,301.839L529.728,301.839L529.887,301.656L530.365,301.289L530.524,301.198L530.684,301.198L530.843,301.198L531.002,300.831L531.48,300.648L531.639,300.557L531.798,300.465L531.957,300.374L532.116,300.099L532.912,299.641L533.072,299.092L533.231,299L533.708,298.542L533.868,298.359L534.027,298.359L534.186,297.993L534.345,297.81L534.823,297.535L534.982,297.535L535.141,297.352L535.301,297.352L535.46,297.26L535.937,296.803L536.097,296.619L536.256,296.528L536.415,296.345L536.574,296.162L537.052,295.795L537.211,295.521L537.37,295.337L537.53,295.246L538.166,294.88L538.326,294.513L538.485,294.33L538.644,294.147L538.803,294.147L539.281,293.781L539.44,293.415L539.599,293.048L540.395,292.407L540.554,292.224L540.714,292.224L540.873,292.224L541.032,292.133L541.51,291.583L541.669,291.4L541.828,291.034L541.987,290.851L542.147,290.668L542.624,290.301L542.783,290.118L542.943,289.752L543.102,289.386L543.261,289.203L543.898,288.653L544.057,288.104L544.216,287.738L544.376,287.371L544.853,286.639L545.012,286.272L545.172,286.089L545.331,285.906L545.49,285.723L545.968,285.174L546.127,284.991L546.286,284.807L546.445,284.624L546.604,284.441L547.082,283.892L547.241,283.709L547.4,283.342L548.197,282.244L548.356,282.06L548.515,281.877L548.674,281.694L548.833,281.328L549.311,280.962L549.47,280.595L549.629,280.595L549.789,280.046L549.948,279.863L550.425,279.497L550.585,279.314L550.744,279.13L550.903,278.581L551.062,278.215L551.858,276.933L552.018,276.567L552.177,276.2L552.654,275.834L552.814,275.651L552.973,275.468L553.132,275.285L553.291,274.918L553.769,274.186L553.928,274.003L554.087,273.636L554.247,273.453L554.406,273.087L554.883,272.538L555.043,272.355L555.202,272.171L555.361,271.805L555.52,271.622L555.998,270.889L556.157,270.889L556.316,270.706L556.475,270.523L556.635,269.974L557.112,269.241L557.271,269.241L557.431,269.058L557.59,269.058L557.749,268.692L558.227,268.143L558.386,267.776L558.545,267.41L558.704,266.861L558.864,266.494L559.341,265.762L559.5,265.396L559.66,265.029L559.819,264.663L559.978,263.747L560.456,239.208L560.615,239.208L560.774,239.208L560.933,239.208L561.093,239.208L561.729,239.208L561.889,239.208L562.048,239.208L562.207,239.208L562.685,239.208L562.844,239.208L563.003,239.208L563.162,239.208L563.321,239.208L563.799,239.208L563.958,239.208L564.117,239.208L564.277,239.208L564.436,239.208L564.914,239.208L565.073,239.208L565.232,239.208L565.391,239.208L565.55,239.208L566.028,239.208L566.187,239.208L566.346,239.208L566.506,239.208L566.665,239.208L567.142,239.208L567.302,239.208L567.461,239.208L567.62,239.208L567.779,239.208L568.257,239.208L568.416,239.208L568.575,239.208L568.735,239.208L568.894,239.208L569.371,239.208L569.531,239.208L569.69,239.208L569.849,239.208L570.645,239.208L570.804,239.208L570.963,239.208L571.123,239.208L571.6,239.208L571.76,239.208L571.919,239.208L572.078,239.208L572.237,239.208L572.715,239.208L572.874,239.208L573.033,239.208L573.192,239.208L573.352,239.208L573.988,239.208L574.148,239.208L574.307,239.208L574.466,239.208L574.944,239.208L575.103,239.208L575.262,238.109L575.421,237.926L575.581,237.743L576.217,237.01L576.377,236.827L576.536,236.644L576.695,236.461L577.173,235.911L577.332,235.728L577.491,235.545L577.65,235.362L577.809,235.179L578.287,234.63L578.446,234.446L578.606,234.263L578.765,226.389L579.402,226.389L579.561,226.389L579.72,72.742L579.879,72.515L580.038,72.375L580.516,71.826L580.675,71.643L580.834,71.46L580.994,71.277L581.153,71.094L581.79,70.269L581.949,70.086L582.108,69.903L582.267,69.72L582.904,68.988L583.063,68.713L583.223,68.53L583.382,68.347L583.859,67.797L584.019,67.614L584.178,67.431L584.337,67.248L584.496,67.065L584.974,66.424L585.133,66.241L585.292,66.057L585.452,65.874L585.611,65.691L586.088,65.142L586.248,64.959L586.407,64.776L586.566,64.592L586.725,64.409L587.203,63.768L587.362,63.585L587.521,63.402L587.68,63.219L587.84,63.036L588.317,62.486L588.477,62.303L588.636,62.12L588.795,61.937L588.954,61.754L589.75,60.655L589.909,60.472L590.069,60.289L590.546,59.739L590.705,59.556L590.865,59.373L591.024,59.19L591.183,59.007L591.661,58.274L591.82,58.091L591.979,57.908L592.138,57.725L592.298,57.542L592.775,56.992L592.934,56.626L593.094,56.443L593.253,56.26L593.412,56.077L593.89,55.527L594.049,55.344L594.208,54.978L594.367,54.795L594.526,54.612L595.004,54.062L595.163,53.879L595.323,53.696L595.482,53.513L595.641,53.147L596.119,52.597L596.278,52.414L596.437,52.231L597.551,50.766L597.711,50.583L597.87,50.217L598.348,49.667L598.507,49.484L598.666,49.301L598.825,49.118L598.984,48.752L599.462,48.202L599.621,48.019L599.78,47.836L599.94,47.653L600.099,47.103L600.576,46.371L600.736,46.371L600.895,46.188L601.054,46.005L601.213,45.638L601.691,45.089L601.85,44.906L602.169,44.54L602.328,44.356L602.805,43.807L602.965,43.624L603.124,43.258L603.283,43.075L603.442,42.891L603.92,42.342L604.079,41.976L604.238,41.793L604.397,41.609L604.557,41.426L605.034,40.694L605.194,40.511L605.353,40.328L605.512,40.144L605.671,39.961L606.149,39.229L606.308,38.862L606.467,38.679L606.626,38.679L606.786,38.313L607.263,37.581L607.422,37.397L607.582,37.397L607.741,36.848L607.9,36.848L608.378,35.932L608.537,35.749L608.696,35.566L608.855,35.566L609.015,35.383L609.651,34.65L609.811,34.467L610.607,33.552L610.766,33.369L610.925,33.185L611.084,32.636L611.243,32.27L611.721,31.537L611.88,31.354L612.04,31.171L612.199,30.988L612.358,30.805L612.836,30.072L613.154,29.706L613.313,29.523L613.472,28.79L613.95,28.607L614.109,28.424L614.268,28.058L614.428,27.875L614.587,27.142L615.065,26.593L615.224,26.593L615.383,26.41L615.542,26.043L615.701,25.128L616.179,24.945L616.338,24.761L616.497,24.578L616.657,24.578L616.816,24.029L617.293,23.663L617.453,23.479L617.612,23.113L617.771,23.113L617.93,22.381L618.408,22.198L618.567,22.014L618.726,21.831L618.886,21.465L619.045,20.733L619.522,20.366L619.682,20.366L619.841,20.183L620,20"/></g><g aria-label="tip" fill="var(--plot-background)" stroke="currentColor" pointer-events="none" text-anchor="start" transform="translate(0.5,0.5)"/></svg>